<svg id="Layer_1" enable-background="new 0 0 512 512" height="512" viewBox="0 0 512 512" width="512" xmlns="http://www.w3.org/2000/svg"><path d="m316 491.546c0 11.046-8.954 20-20 20-15.355 0-29.376-5.805-40-15.327-10.624 9.522-24.645 15.327-40 15.327-11.046 0-20-8.954-20-20s8.954-20 20-20c11.028 0 20-8.972 20-20v-152c1.056-26.536 38.953-26.516 40 0v152c0 11.028 8.972 20 20 20 11.046 0 20 8.954 20 20zm144-98c-11.046 0-20 8.954-20 20 0 19.626-16.183 35-36.842 35-23.798 0-43.158-19.186-43.158-42.768v-79.232c-1.056-26.536-38.953-26.516-40 0v79.232c-.658 69.97 85.875 110.057 137.184 61.412 14.713-14.089 22.816-33.14 22.816-53.644 0-11.046-8.954-20-20-20zm32-118c-11.046 0-20 8.954-20 20 0 11.028-8.972 20-20 20s-20-8.972-20-20v-120c-9.695-233.546-342.392-233.365-352 0v120c0 11.028-8.972 20-20 20s-20-8.972-20-20c0-11.046-8.954-20-20-20s-20 8.954-20 20c3.297 79.602 116.719 79.571 120 0v-120c7.492-180.467 264.575-180.328 272 0v120c3.304 79.613 116.721 79.561 120 0 0-11.046-8.954-20-20-20zm-320 31c-11.046 0-20 8.954-20 20v79.232c0 23.582-19.36 42.768-43.158 42.768-20.659 0-36.842-15.374-36.842-35-1.047-26.52-38.949-26.53-40 0 0 20.504 8.103 39.556 22.816 53.644 51.327 48.659 137.849 8.53 137.184-61.412v-79.232c0-11.046-8.954-20-20-20zm148-127c13.807 0 25 11.193 25 25-1.317 33.162-48.688 33.153-50 0 0-13.807 11.193-25 25-25zm-128 0c-13.807 0-25 11.193-25 25 1.317 33.162 48.688 33.153 50 0 0-13.807-11.193-25-25-25z"/></svg>