<svg id="Layer_1" enable-background="new 0 0 512.07 512.07" height="512" viewBox="0 0 512.07 512.07" width="512" xmlns="http://www.w3.org/2000/svg"><path d="m290.029 512.014c-182.661.882-292.127-138.093-289.998-320 4.104-99.466 145.879-99.499 149.998.001 0 27.013-9.909 50.019-15 60.056v4.944c0 28.752 6.842 60.168 17.854 81.988 4.978 9.861 1.019 21.889-8.843 26.866-9.859 4.978-21.889 1.019-26.866-8.843-13.867-27.474-22.146-64.861-22.146-100.012v-10c0-3.67 1.01-7.27 2.92-10.405.073-.125 12.08-20.535 12.08-44.595 0-19.299-15.701-35-35-35s-35 15.701-35 35c0 172.71 95.795 280 250 280 100.355 0 182-81.645 182-182 0-77.748-63.26-141-141.016-141-119.803-1.07-154.303 182.01-22.709 192.002 36.491-.002 69.724-29.919 69.724-62.768 0-21.083-17.17-38.234-38.275-38.234-14.486 0-26.725 12.364-26.725 27 0 11.046-8.954 20-20 20s-20-8.954-20-20c0-17.708 6.948-34.464 19.564-47.183 46.467-46.752 126.996-4.533 125.435 58.418.001 27.399-12.23 53.449-34.44 73.351-46.05 42.57-119.902 37.019-162.82-6.705-54.181-51.302-44.641-142.457 5.809-192.262 27.633-28.128 64.723-43.619 104.437-43.619 99.812 0 181.016 81.196 181.016 181 2.427 119.727-102.268 224.433-221.999 222zm-247.984-414.677c10.119-4.427 14.733-16.22 10.307-26.34-3.428-7.834-12.323-32.266-12.323-50.983 0-11.046-8.954-20-20-20s-20 8.954-20 20c0 30.829 15.037 65.553 15.677 67.017 3.286 7.51 10.629 11.988 18.334 11.988 2.675 0 5.396-.54 8.005-1.682zm104.742-62.808c-22.193 21.038-22.747 43.513-22.76 44.46l-.001-.269h-.013c-.651 26.551-38.519 27.102-39.971.588h-.013c-.001-.05-.003-.193-.001-.313.01-4.008 1.056-41.092 35.24-73.496 8.015-7.598 20.674-7.26 28.273.756 7.602 8.017 7.263 20.675-.754 28.274z"/></svg>