<svg id="Layer_1" enable-background="new 0 0 512.318 512.318" height="512" viewBox="0 0 512.318 512.318" width="512" xmlns="http://www.w3.org/2000/svg"><path d="m166.145 466.238c.424 11.038-8.18 20.33-19.217 20.754-2.909.112-5.859.168-8.769.168-46.235 0-92.227-14.433-129.503-40.639-9.036-6.353-11.211-18.828-4.858-27.864 6.353-9.037 18.826-11.212 27.864-4.859 32.527 22.869 73.241 34.778 113.729 33.222 11.033-.428 20.33 8.18 20.754 19.218zm314.512-52.439c-32.527 22.868-73.242 34.774-113.729 33.222-11.062-.408-20.33 8.18-20.754 19.217-.424 11.038 8.18 20.33 19.217 20.754 2.909.112 5.859.168 8.769.168 46.235 0 92.227-14.433 129.503-40.639 9.036-6.353 11.211-18.828 4.858-27.864-6.353-9.037-18.827-11.211-27.864-4.858zm-224.497-79.147c-24.229 39.842-68.059 66.508-118 66.508-104.927.976-173.179-116.871-119.277-207.077 5.565-9.541 17.81-12.765 27.354-7.199 9.541 5.565 12.764 17.812 7.199 27.353-38.261 64.033 10.304 147.627 84.725 146.922 54.036.001 97.999-43.962 97.999-97.999s-43.963-98-98-98c-49.538 0-89.262-25.261-114.878-73.052-18.282-34.108-22.778-67.983-22.96-69.409-1.403-10.956 6.342-20.975 17.299-22.377 10.949-1.402 20.974 6.342 22.376 17.298.886 10.295 12.24 55.081 34.342 78.701 88.114-101.468 275.653-101.516 363.181.508 22.578-23.797 33.956-69.144 34.806-79.252 1.45-10.933 11.474-18.657 22.414-17.227 10.937 1.424 18.658 11.41 17.258 22.35-.183 1.425-4.679 35.3-22.96 69.409-25.616 47.791-65.34 73.052-114.878 73.052-54.037 0-98 43.963-98 98 0 54.038 43.963 98 98 98 74.422.694 122.988-82.886 84.724-146.923-5.564-9.541-2.342-21.787 7.199-27.353 9.541-5.564 21.787-2.342 27.354 7.199 53.901 90.235-14.356 208.046-119.278 207.076-49.941 0-93.771-26.666-117.999-66.508zm0-142.984c24.229-39.841 68.059-66.508 118-66.508 10.87 0 20.98-1.759 30.312-5.244-6.106-6.548-14.484-14.439-25.294-22.271-75.458-56.764-208.186-48.771-271.985 22.019 9.514 3.65 19.841 5.496 30.966 5.496 49.942 0 93.772 26.666 118.001 66.508zm-118 131.492c-79.597-3.296-79.577-116.715 0-120 11.045 0 20 8.954 20 20s-8.954 20-20 20c-11.028 0-20 8.972-20 20s8.972 20 20 20 20-8.972 20-20c0-11.046 8.954-20 20-20s20 8.954 20 20c0 33.084-26.916 60-60 60zm296-60c0-11.046-8.954-20-20-20s-20 8.954-20 20c0 11.028-8.972 20-20 20s-20-8.972-20-20 8.972-20 20-20c11.046 0 20-8.954 20-20s-8.954-20-20-20c-79.595 3.294-79.578 116.715 0 120 33.084 0 60-26.916 60-60zm-164.243 243.517c99.126-96.215 7.643-114.735 6.243-74.559-.004.072-.522 7.396-15.619 25.832-1.471 1.796-2.944 3.53-4.382 5.176-1.438-1.646-2.911-3.379-4.382-5.176-14.843-18.126-15.594-25.511-15.618-25.822-1.424-40.135-92.876-21.68 6.242 74.549 3.857 3.656 8.808 5.483 13.758 5.483s9.901-1.828 13.758-5.483zm-33.757-74.517h.01z"/></svg>