<svg id="Layer_1" enable-background="new 0 0 512.216 512.216" height="512" viewBox="0 0 512.216 512.216" width="512" xmlns="http://www.w3.org/2000/svg"><path d="m297.002 372.072c0 11.046-8.954 20-20 20-1.056 26.536-38.953 26.516-40 0-26.536-1.056-26.516-38.953 0-40h40c11.046 0 20 8.954 20 20zm215-79c.605 125.224-132.446 222.55-256.001 218.997-123.486 3.579-256.689-93.796-255.998-219-.001-33.273 8.046-69.008 23.271-103.34 1.975-4.453 1.521-9.562-1.186-13.333-10.657-14.851-17.812-32.721-20.692-51.676-2.938-19.335-1.203-38.424 5.018-55.203 15.723-42.465 55.787-69.743 101.8-69.443 30.704.184 65.881 15.328 87.629 36.653 38.56-10.188 81.758-10.188 120.318 0 21.749-21.326 56.925-36.468 87.629-36.653 66.537-1.376 118.328 59.202 106.818 124.646-2.88 18.956-10.035 36.825-20.693 51.677-2.705 3.771-3.159 8.879-1.185 13.333 15.225 34.331 23.272 70.067 23.272 103.342zm-40 0c0-27.733-6.859-57.862-19.838-87.126-7.699-17.365-5.687-37.622 5.252-52.868 14.168-19.743 18.555-48.386 10.669-69.654-9.961-26.921-34.601-43.548-64.055-43.351-13.876.083-30.212 5.3-43.686 13.091 23.518 11.542 45.543 27.126 65.589 46.589 7.925 7.694 8.112 20.356.418 28.281-7.701 7.929-20.363 8.107-28.281.417-77.558-78.801-206.766-78.639-284.137 0-7.923 7.693-20.586 7.507-28.281-.417-7.694-7.925-7.507-20.587.418-28.281 20.046-19.463 42.071-35.047 65.589-46.589-13.473-7.791-29.809-13.008-43.686-13.091-29.456-.197-54.093 16.428-64.055 43.351-7.885 21.268-3.498 49.911 10.669 69.653 10.939 15.246 12.952 35.503 5.253 52.867-12.979 29.266-19.838 59.394-19.838 87.127.166 103.572 114.01 181.96 216 178.998 101.966 2.993 215.871-75.455 216-178.997zm-68.295-78.694c-38.416-43.895-126.356-53.678-127.705 20.167v.1c-.942 50.122 37.201 131.061 92.001 129.426 25.395.001 67.999-9.457 67.999-72.799 0-27.248-11.772-55.275-32.295-76.894zm-35.705 109.694c-5.759 0-11.537-2.598-17.04-7.042 7.769-4.241 13.04-12.483 13.04-21.958.119-20.521-23.868-32.319-40.015-19.988-4.971-13.415-7.977-27.737-7.985-40.39.033-5.422 1.038-9.663 2.76-11.639 2.26-2.595 8.012-2.982 11.24-2.982 32.691 0 66 35.933 66 71.2 0 27.726-9.43 32.799-28 32.799zm-186-144c-26.143 0-53.007 12.504-73.705 34.306-20.523 21.619-32.295 49.646-32.295 76.894 0 63.342 42.604 72.8 68 72.8 54.858 1.586 92.938-79.288 92-129.527-.167-33.6-20.859-54.473-54-54.473zm-66 111.2c0-35.268 33.309-71.2 66-71.2 3.229 0 8.98.388 11.24 2.982 1.728 1.982 2.733 6.243 2.76 11.59 0 12.665-3.008 27.007-7.985 40.439-16.155-12.332-40.133-.53-40.015 19.989 0 9.474 5.271 17.717 13.04 21.957-5.503 4.444-11.281 7.042-17.04 7.042-18.57.001-28-5.072-28-32.799z"/></svg>